HIERARCHY
ROOT pelvis
{
  OFFSET 0 100 0
  CHANNELS 6 Xposition Yposition Zposition Zrotation Xrotation Yrotation
  JOINT pelvis_right_femur
  {
    OFFSET -10.78128 -3.44521 -0.5502486
    CHANNELS 3 Zrotation Xrotation Yrotation
    JOINT right_femur_tibia
    {
      OFFSET -0.8047443 -44.0398 -0.1307829
      CHANNELS 3 Zrotation Xrotation Yrotation
      JOINT right_tibia_foot
      {
        OFFSET 3.006224 -47.83518 -5
        CHANNELS 3 Zrotation Xrotation Yrotation
        End Site
        {
          OFFSET 0 -5 15
        }
      }
    }
  }
  JOINT pelvis_left_femur
  {
    OFFSET 10.78128 -3.44521 -0.5502486
    CHANNELS 3 Zrotation Xrotation Yrotation
    JOINT left_femur_tibia
    {
      OFFSET 0.8047443 -44.0398 -0.1307829
      CHANNELS 3 Zrotation Xrotation Yrotation
      JOINT left_tibia_foot
      {
        OFFSET -4.370144 -48.10324 -4.275266
        CHANNELS 3 Zrotation Xrotation Yrotation
        End Site
        {
          OFFSET 0 -5 15
        }
      }
    }
  }
  JOINT pelvis_spine1
  {
    OFFSET 0 6.468898 -3.129235
    CHANNELS 3 Zrotation Xrotation Yrotation
    JOINT spine1
    {
      OFFSET 0 23.15396 4.99043
      CHANNELS 3 Zrotation Xrotation Yrotation
      JOINT spine2
      {
        OFFSET 0 20.79997 -5.064912
        CHANNELS 3 Zrotation Xrotation Yrotation
        JOINT neck
        {
          OFFSET 0 14.38658 9.616178
          CHANNELS 3 Zrotation Xrotation Yrotation
          End Site
          {
            OFFSET 0 20 0
          }
        }
      }
      JOINT right_manubrium
      {
        OFFSET -5.722621 16.35077 3.967754
        CHANNELS 3 Zrotation Xrotation Yrotation
        JOINT right_clavicle
        {
          OFFSET -13.16364 1.694482 -4.693211
          CHANNELS 3 Zrotation Xrotation Yrotation
          JOINT right_humerus
          {
            OFFSET -28.5034 -0.3100689 -2.792744
            CHANNELS 3 Zrotation Xrotation Yrotation
            JOINT right_radius
            {
              OFFSET -25.15693 0.02248979 -1.271978
              CHANNELS 3 Zrotation Xrotation Yrotation
              End Site
              {
                OFFSET -15 0 0
              }
            }
          }
        }
      }
      JOINT left_manubrium
      {
        OFFSET 5.722621 16.35077 3.967754
        CHANNELS 3 Zrotation Xrotation Yrotation
        JOINT left_clavicle
        {
          OFFSET 13.16364 1.694482 -4.693211
          CHANNELS 3 Zrotation Xrotation Yrotation
          JOINT left_humerus
          {
            OFFSET 29.39168 -1.063119 -2.237045
            CHANNELS 3 Zrotation Xrotation Yrotation
            JOINT left_radius
            {
              OFFSET 24.59957 -0.9528479 0.9047498
              CHANNELS 3 Zrotation Xrotation Yrotation
              End Site
              {
                OFFSET 15 -0 -0
              }
            }
          }
        }
      }
    }
  }
}
MOTION
Frames: 8
Frame Time: 0.0416666666667
0 103.5113 0 -0.09676054 -0.4316779 0.142707 4.661348 -16.05561 8.984868 -3.388171e-11 36.09229 1.624091e-09 -7.097878 -18.28065 -3.517002 -5.889966 7.348824 -22.62973 -4.548634e-09 5.029231 4.914943e-09 5.622779 -17.54405 24.5508 -2.914772 -2.547783 4.164049 2.542443 8.248779 -7.183421 1.453666 22.27589 6.476632 2.569402 -24.12857 9.45359 5.818024 -19.99299 11.27904 83.94674 35.03552 -16.23366 -2.207274e-10 -1.639887e-11 18.23402 -5.460049 8.057487 4.629899 5.163834 -18.1858 -0.9531749 -96.94783 29.91668 26.48568 6.264727e-10 -3.713515e-10 -12.46712 2.633397 17.86426 10.62014
0.3692471 103.6016 1.459737 -0.03665497 -0.4707683 0.3905095 4.599145 -17.62138 9.136836 9.541178e-11 38.53665 1.892079e-09 -6.670177 -17.06124 -3.744031 -6.052285 9.09184 -22.78586 -5.369663e-09 4.971677 5.377168e-09 5.75491 -17.98782 24.38523 -3.021607 -2.645105 4.010353 2.570573 8.438515 -7.44104 1.403762 22.18882 6.636883 2.621181 -24.20625 9.553469 6.045199 -19.82034 11.33819 84.66013 35.12245 -17.15046 -2.965186e-10 -6.962299e-11 17.9199 -5.610898 8.335453 4.531485 5.135185 -18.41628 -1.115471 -96.62459 29.93983 26.03789 3.561194e-10 -4.440952e-10 -13.04422 2.573281 17.64777 10.7877
0.7343098 103.7474 3.011574 -0.02315787 -0.3060109 0.7135279 4.614419 -19.37919 9.013193 9.884819e-11 39.15102 1.943002e-09 -6.421023 -15.86561 -3.823714 -6.11425 10.6103 -22.68459 -5.487716e-09 4.906942 5.426795e-09 5.795826 -18.47301 24.00288 -3.077301 -2.730217 3.849261 2.644024 8.586355 -7.728257 1.318857 22.07641 6.811669 2.713352 -24.34325 9.588638 6.18404 -19.61701 11.39779 85.36475 35.24954 -18.13557 -3.288691e-10 -1.284621e-10 17.41839 -5.902083 8.607751 4.521953 5.229731 -18.8244 -1.24677 -96.0733 29.81412 25.29222 2.13202e-10 -4.484759e-10 -13.99155 2.742594 17.45212 10.67301
1.077328 103.8732 4.735515 -0.06082355 0.08777452 1.085359 4.687985 -21.32684 8.598143 -3.06828e-11 37.92717 1.740533e-09 -6.348746 -14.63984 -3.732474 -6.094198 11.86892 -22.31109 -4.785787e-09 4.923621 4.9963e-09 5.708082 -19.00518 23.38391 -3.086277 -2.798129 3.684056 2.764912 8.687786 -8.048556 1.193677 21.9551 7.01856 2.860399 -24.56535 9.565542 6.253858 -19.36946 11.46846 86.12321 35.47194 -19.22448 -3.103052e-10 -1.938444e-10 16.70468 -6.376398 8.883529 4.626001 5.456002 -19.42227 -1.329515 -95.35391 29.53554 24.25018 2.086312e-10 -3.767366e-10 -15.33346 3.138512 17.26359 10.29027
1.380653 103.8972 6.680824 -0.1533833 0.6739812 1.473756 4.811766 -23.33745 7.942937 -2.925758e-10 34.89279 1.317314e-09 -6.461876 -13.55109 -3.489059 -5.987363 12.81244 -21.70837 -3.38822e-09 4.981262 4.17249e-09 5.502889 -19.53707 22.57336 -3.042957 -2.84207 3.520366 2.925624 8.718774 -8.37182 1.043874 21.81347 7.224154 3.03612 -24.82765 9.480297 6.23856 -19.08025 11.52656 86.77408 35.75105 -20.29481 -2.467149e-10 -2.594643e-10 15.82873 -6.930576 9.11835 4.798984 5.791216 -20.13709 -1.35375 -94.43485 29.14198 22.95989 3.451345e-10 -2.453008e-10 -16.95064 3.718545 17.09422 9.666792
1.636092 103.7717 8.885491 -0.2844404 1.379252 1.858558 4.937094 -25.2735 7.126836 -6.689598e-10 30.76542 7.296322e-10 -6.691285 -12.52039 -3.129635 -5.836521 13.45646 -20.93825 -1.475969e-09 5.182821 3.048134e-09 5.182937 -20.02235 21.62471 -2.966138 -2.862561 3.366501 3.103455 8.698276 -8.679587 0.8788024 21.66177 7.43041 3.233528 -25.11021 9.352321 6.17672 -18.75193 11.57633 87.31263 36.08647 -21.30647 -1.492913e-10 -3.243726e-10 14.84473 -7.559384 9.321001 5.033144 6.18709 -20.89934 -1.324582 -93.40153 28.66423 21.53408 5.782051e-10 -7.688682e-11 -18.68898 4.397645 16.91366 8.910217
1.840655 103.4651 11.39758 -0.4327015 2.090801 2.223597 5.028917 -26.98771 6.209177 -1.138887e-09 26.05692 2.14183e-11 -6.947775 -11.52947 -2.725879 -5.660005 13.79868 -20.0111 7.577296e-10 5.708867 1.727567e-09 4.690031 -20.43318 20.5849 -2.865712 -2.839352 3.23249 3.269984 8.638385 -8.949049 0.7208353 21.54377 7.630301 3.436142 -25.35865 9.205934 6.074728 -18.37802 11.61986 87.84036 36.41202 -22.24499 -2.883991e-11 -3.820613e-10 13.80714 -8.322763 9.527858 5.338718 6.618929 -21.65878 -1.251334 -92.37996 28.1183 20.01385 8.697444e-10 1.071996e-10 -20.44183 5.088038 16.68731 8.120696
2.004149 103.0202 14.23571 -0.5612066 2.644273 2.567242 5.063596 -28.26521 5.381315 -1.593762e-09 22.13224 -6.599144e-10 -7.116975 -10.48722 -2.390047 -5.524246 13.94754 -19.07488 2.873292e-09 6.875965 4.497856e-10 4.048856 -20.6723 19.57689 -2.767712 -2.7742 3.128573 3.38848 8.582054 -9.151509 0.5952623 21.48666 7.813676 3.621434 -25.52647 9.079829 5.998915 -17.9603 11.66206 88.37662 36.68939 -23.06632 8.768442e-11 -4.255368e-10 12.80889 -9.147141 9.747273 5.658145 6.983843 -22.28875 -1.16388 -91.52073 27.60661 18.59762 1.12125e-09 2.694573e-10 -21.91713 5.632041 16.39775 7.494876
